<svg width="81" height="74" viewBox="0 0 81 74" fill="none" xmlns="http://www.w3.org/2000/svg">
<path d="M39.9241 66.6191C39.9241 66.8746 40.1312 67.0818 40.3867 67.0818C40.6422 67.0818 40.8493 66.8746 40.8493 66.6191H39.9241ZM40.8493 66.6191V46.3518H39.9241V66.6191H40.8493Z" fill="white"/>
<path d="M40.8493 5.69263C40.8493 5.43713 40.6422 5.23001 40.3867 5.23001C40.1312 5.23001 39.9241 5.43713 39.9241 5.69263H40.8493ZM39.9241 5.69263L39.9241 25.96H40.8493L40.8493 5.69263H39.9241Z" fill="white"/>
<path d="M70.6445 36.6181C70.9 36.6181 71.1072 36.411 71.1072 36.1555C71.1072 35.9 70.9 35.6929 70.6445 35.6929L70.6445 36.6181ZM70.6445 35.6929L50.5136 35.6929L50.5136 36.6181L70.6445 36.6181L70.6445 35.6929Z" fill="white"/>
<path d="M10.1289 35.6927C9.87341 35.6927 9.66629 35.8998 9.66629 36.1553C9.66629 36.4108 9.87341 36.6179 10.1289 36.6179L10.1289 35.6927ZM10.1289 36.6179L30.2598 36.6179L30.2598 35.6927L10.1289 35.6927L10.1289 36.6179Z" fill="white"/>
<path d="M66.3597 51.7885C66.5806 51.9169 66.8627 51.8413 66.9898 51.6197C67.1169 51.3981 67.0409 51.1143 66.82 50.9859L66.3597 51.7885ZM66.82 50.9859L49.3861 40.8522L48.9258 41.6548L66.3597 51.7885L66.82 50.9859Z" fill="white"/>
<path d="M14.4118 20.5225C14.1909 20.3941 13.9088 20.4697 13.7817 20.6913C13.6546 20.913 13.7306 21.1967 13.9515 21.3251L14.4118 20.5225ZM13.9515 21.3251L31.3854 31.4588L31.8457 30.6562L14.4118 20.5225L13.9515 21.3251Z" fill="white"/>
<path d="M13.9535 50.9861C13.7326 51.1145 13.6565 51.3983 13.7836 51.6199C13.9107 51.8416 14.1928 51.9172 14.4137 51.7888L13.9535 50.9861ZM14.4137 51.7888L31.8476 41.6551L31.3874 40.8524L13.9535 50.9861L14.4137 51.7888Z" fill="white"/>
<path d="M66.8219 21.3254C67.0428 21.197 67.1189 20.9132 66.9918 20.6916C66.8647 20.4699 66.5826 20.3944 66.3617 20.5228L66.8219 21.3254ZM66.3617 20.5228L48.9277 30.6565L49.388 31.4591L66.8219 21.3254L66.3617 20.5228Z" fill="white"/>
<path d="M24.8579 62.3046C24.7307 62.5263 24.8068 62.81 25.0277 62.9384C25.2486 63.0668 25.5307 62.9912 25.6578 62.7696L24.8579 62.3046ZM25.6578 62.7696L35.7232 45.2175L34.9233 44.7526L24.8579 62.3046L25.6578 62.7696Z" fill="white"/>
<path d="M55.9156 10.0057C56.0427 9.78404 55.9667 9.50028 55.7458 9.37188C55.5249 9.24348 55.2428 9.31907 55.1157 9.54071L55.9156 10.0057ZM55.1157 9.54071L45.0502 27.0928L45.8501 27.5577L55.9156 10.0057L55.1157 9.54071Z" fill="white"/>
<path d="M55.1137 62.7696C55.2408 62.9912 55.5229 63.0668 55.7438 62.9384C55.9647 62.81 56.0407 62.5263 55.9136 62.3046L55.1137 62.7696ZM55.9136 62.3046L45.8482 44.7526L45.0482 45.2175L55.1137 62.7696L55.9136 62.3046Z" fill="white"/>
<path d="M25.6558 9.54071C25.5287 9.31907 25.2466 9.24348 25.0257 9.37188C24.8048 9.50028 24.7288 9.78404 24.8559 10.0057L25.6558 9.54071ZM24.8559 10.0057L34.9214 27.5577L35.7213 27.0928L25.6558 9.54071L24.8559 10.0057Z" fill="white"/>
</svg>
